<svg width="1208" height="563" viewBox="0 0 1208 563" fill="none" xmlns="http://www.w3.org/2000/svg">
<path d="M303.997 415.5C291.997 434.3 277.663 449 271.997 454L266.497 464.5C269.997 464.833 282.397 465.1 303.997 463.5C330.997 461.5 356.497 449 378.497 438C400.497 427 420.497 403 436.497 375C449.297 352.6 454.163 333 454.997 326C449.33 325 428.897 326 392.497 338C346.997 353 318.997 392 303.997 415.5Z" fill="#105830"/>
<path d="M228.997 519.5H202.997C255.497 456.5 251.497 444.5 262.497 401.5C271.297 367.1 258.163 319.833 250.497 300.5H277.997C278.33 300.667 279.897 304.5 283.497 318.5C287.997 336 293.497 352 287.497 405.5C282.697 448.3 246.663 499.667 228.997 519.5Z" fill="#105830"/>
<path d="M221 396.705C230.2 411.105 237.167 438.705 239.5 450.705C238 450.205 232.5 448.805 222.5 447.205C210 445.205 176 437.205 146 419.705C116 402.205 97 375.205 89 360.705C82.6 349.105 76.3333 330.539 74 322.705C87 322.205 127 321.205 161 339.205C195 357.205 209.5 378.705 221 396.705Z" fill="#5F9A38"/>
<path d="M264 44.0195C245.086 47.0305 236.078 54.0516 214.625 77.5C197.425 96.3 188.792 128.667 186.625 142.5L264 233.852V234L264.063 233.926L264.125 234V233.852L341.5 142.5C339.334 128.667 330.7 96.3 313.5 77.5C292.048 54.0517 283.04 47.0306 264.125 44.0195V44C264.105 44.0033 264.084 44.0065 264.063 44.0098C264.042 44.0065 264.021 44.0033 264 44V44.0195Z" fill="#FDC005"/>
<path d="M400.5 247C359 291 294.333 301.667 264 302V234C265.167 229.5 270.1 217 282.5 199C298 176.5 331.5 142.5 366.5 130C401.5 117.5 416 119 431 121C443 122.6 444.667 139 444 147C443 160.5 442 203 400.5 247Z" fill="#FDC005"/>
<path d="M299.871 176.68C282.42 193.324 268.686 221.781 264 234V302C287.753 288.13 325.078 239.094 334.773 203.924C342.529 175.788 342.529 151.251 341.56 142.5C334.935 146.958 317.322 160.036 299.871 176.68Z" fill="#FEE298"/>
<path d="M127.625 247C169.125 291 233.792 301.667 264.125 302V234C262.959 229.5 258.025 217 245.625 199C230.125 176.5 196.625 142.5 161.625 130C126.625 117.5 112.125 119 97.1255 121C85.1255 122.6 83.4588 139 84.1255 147C85.1255 160.5 86.1255 203 127.625 247Z" fill="#FDC005"/>
<path d="M228.254 176.68C245.705 193.324 259.44 221.781 264.125 234V302C240.373 288.13 203.047 239.094 193.352 203.924C185.596 175.788 185.596 151.251 186.566 142.5C193.191 146.958 210.803 160.036 228.254 176.68Z" fill="#FEE298"/>
<path d="M629.2 233.8H595.4V212.8H653.6V231C653.6 241.667 651.6 251.467 647.6 260.4C643.6 269.333 637.2 276.533 628.4 282C619.733 287.333 608.333 290 594.2 290C573.8 290 558.067 283.8 547 271.4C535.933 258.867 530.4 240.8 530.4 217.2C530.4 193.6 535.933 175.6 547 163.2C558.067 150.8 573.8 144.6 594.2 144.6C604.867 144.6 614.4 146.533 622.8 150.4C631.333 154.267 638.2 159.8 643.4 167C648.733 174.067 651.933 182.467 653 192.2H628C626.8 183.533 623.4 176.933 617.8 172.4C612.2 167.867 604.333 165.6 594.2 165.6C581.267 165.6 571.533 169.867 565 178.4C558.6 186.8 555.4 199.733 555.4 217.2C555.4 234.667 558.6 247.667 565 256.2C571.533 264.733 581.267 269 594.2 269C599.933 269 604.8 268.333 608.8 267C612.8 265.667 616.067 263.8 618.6 261.4C621.267 259 623.333 256.267 624.8 253.2C626.4 250.133 627.467 246.933 628 243.6C628.667 240.267 629.067 237 629.2 233.8ZM682.439 227.2H742.639C742.372 219.2 740.239 213 736.239 208.6C732.239 204.067 726.439 201.8 718.839 201.8C709.772 201.8 703.172 204.533 699.039 210C694.906 215.467 692.839 224.333 692.839 236.6C692.839 248.867 694.839 257.733 698.839 263.2C702.972 268.533 710.106 271.2 720.239 271.2C727.306 271.2 732.306 270.2 735.239 268.2C738.172 266.2 740.039 263.267 740.839 259.4H765.839C764.906 265.4 762.639 270.733 759.039 275.4C755.439 279.933 750.439 283.533 744.039 286.2C737.639 288.733 729.706 290 720.239 290C703.439 290 690.639 285.4 681.839 276.2C673.172 267 668.839 253.867 668.839 236.8C668.839 219.467 673.172 206.2 681.839 197C690.639 187.667 702.972 183 718.839 183C728.572 183 736.972 185 744.039 189C751.239 193 756.839 199 760.839 207C764.839 214.867 766.839 224.733 766.839 236.6V244H682.239L682.439 227.2ZM795.916 227.2H856.116C855.849 219.2 853.716 213 849.716 208.6C845.716 204.067 839.916 201.8 832.316 201.8C823.249 201.8 816.649 204.533 812.516 210C808.382 215.467 806.316 224.333 806.316 236.6C806.316 248.867 808.316 257.733 812.316 263.2C816.449 268.533 823.582 271.2 833.716 271.2C840.782 271.2 845.782 270.2 848.716 268.2C851.649 266.2 853.516 263.267 854.316 259.4H879.316C878.382 265.4 876.116 270.733 872.516 275.4C868.916 279.933 863.916 283.533 857.516 286.2C851.116 288.733 843.182 290 833.716 290C816.916 290 804.116 285.4 795.316 276.2C786.649 267 782.316 253.867 782.316 236.8C782.316 219.467 786.649 206.2 795.316 197C804.116 187.667 816.449 183 832.316 183C842.049 183 850.449 185 857.516 189C864.716 193 870.316 199 874.316 207C878.316 214.867 880.316 224.733 880.316 236.6V244H795.716L795.916 227.2ZM926.592 288H902.392V185H926.592L926.392 200.2C929.326 195 932.926 191.2 937.192 188.8C941.459 186.267 946.792 185 953.192 185H961.192V204.4H948.392C941.059 204.4 935.592 206.333 931.992 210.2C928.392 214.067 926.592 220.267 926.592 228.8V288ZM1029.93 204.4H1008.73V268.6H1029.93V288H1013.93C1005.4 288 998.331 286 992.731 282C987.265 277.867 984.531 271.133 984.531 261.8V204.4H968.131V185H984.531V155.6H1008.73V185H1029.93V204.4ZM1101.33 214.8C1100.53 210 1098.79 206.733 1096.13 205C1093.46 203.133 1089.53 202.2 1084.33 202.2C1079.13 202.2 1074.99 203.133 1071.93 205C1068.86 206.733 1067.33 209.333 1067.33 212.8C1067.33 215.733 1068.39 218.133 1070.53 220C1072.66 221.867 1076.19 223.467 1081.13 224.8L1095.53 228.4C1105.79 230.933 1113.53 234.667 1118.73 239.6C1123.93 244.4 1126.53 250.667 1126.53 258.4C1126.53 268.133 1122.79 275.867 1115.33 281.6C1107.86 287.2 1096.99 290 1082.73 290C1069.53 290 1059.19 287.2 1051.73 281.6C1044.39 276 1040.33 268 1039.53 257.6H1064.53C1065.06 262.267 1066.66 265.6 1069.33 267.6C1072.13 269.6 1076.46 270.6 1082.33 270.6C1090.06 270.6 1095.26 269.6 1097.93 267.6C1100.59 265.6 1101.93 262.867 1101.93 259.4C1101.93 256.2 1100.93 253.6 1098.93 251.6C1096.93 249.6 1093.53 248 1088.73 246.8L1074.33 243.2C1064.19 240.667 1056.46 236.933 1051.13 232C1045.93 227.067 1043.33 220.933 1043.33 213.6C1043.33 204.267 1046.93 196.867 1054.13 191.4C1061.46 185.8 1071.53 183 1084.33 183C1096.73 183 1106.46 185.8 1113.53 191.4C1120.73 197 1124.46 204.8 1124.73 214.8H1101.33Z" fill="#FDC005"/>
<path d="M629.2 403.8H595.4V382.8H653.6V401C653.6 411.667 651.6 421.467 647.6 430.4C643.6 439.333 637.2 446.533 628.4 452C619.733 457.333 608.333 460 594.2 460C573.8 460 558.067 453.8 547 441.4C535.933 428.867 530.4 410.8 530.4 387.2C530.4 363.6 535.933 345.6 547 333.2C558.067 320.8 573.8 314.6 594.2 314.6C604.867 314.6 614.4 316.533 622.8 320.4C631.333 324.267 638.2 329.8 643.4 337C648.733 344.067 651.933 352.467 653 362.2H628C626.8 353.533 623.4 346.933 617.8 342.4C612.2 337.867 604.333 335.6 594.2 335.6C581.267 335.6 571.533 339.867 565 348.4C558.6 356.8 555.4 369.733 555.4 387.2C555.4 404.667 558.6 417.667 565 426.2C571.533 434.733 581.267 439 594.2 439C599.933 439 604.8 438.333 608.8 437C612.8 435.667 616.067 433.8 618.6 431.4C621.267 429 623.333 426.267 624.8 423.2C626.4 420.133 627.467 416.933 628 413.6C628.667 410.267 629.067 407 629.2 403.8ZM700.42 458H676.22V355H700.42L700.22 370.2C703.154 365 706.754 361.2 711.02 358.8C715.287 356.267 720.62 355 727.02 355H735.02V374.4H722.22C714.887 374.4 709.42 376.333 705.82 380.2C702.22 384.067 700.42 390.267 700.42 398.8V458ZM791.905 460C776.171 460 763.771 455.4 754.705 446.2C745.638 437 741.105 423.8 741.105 406.6C741.105 389.4 745.638 376.2 754.705 367C763.905 357.667 776.305 353 791.905 353C802.438 353 811.505 355.067 819.105 359.2C826.705 363.333 832.571 369.4 836.705 377.4C840.971 385.267 843.105 395 843.105 406.6C843.105 423.8 838.505 437 829.305 446.2C820.105 455.4 807.638 460 791.905 460ZM792.105 440.6C801.305 440.6 808.038 437.733 812.305 432C816.705 426.267 818.905 417.8 818.905 406.6C818.905 395.4 816.705 386.933 812.305 381.2C808.038 375.333 801.305 372.4 792.105 372.4C782.905 372.4 776.105 375.333 771.705 381.2C767.438 386.933 765.305 395.4 765.305 406.6C765.305 417.8 767.438 426.267 771.705 432C776.105 437.733 782.905 440.6 792.105 440.6ZM872.283 397.2H932.483C932.216 389.2 930.083 383 926.083 378.6C922.083 374.067 916.283 371.8 908.683 371.8C899.616 371.8 893.016 374.533 888.883 380C884.749 385.467 882.683 394.333 882.683 406.6C882.683 418.867 884.683 427.733 888.683 433.2C892.816 438.533 899.949 441.2 910.083 441.2C917.149 441.2 922.149 440.2 925.083 438.2C928.016 436.2 929.883 433.267 930.683 429.4H955.683C954.749 435.4 952.483 440.733 948.883 445.4C945.283 449.933 940.283 453.533 933.883 456.2C927.483 458.733 919.549 460 910.083 460C893.283 460 880.483 455.4 871.683 446.2C863.016 437 858.683 423.867 858.683 406.8C858.683 389.467 863.016 376.2 871.683 367C880.483 357.667 892.816 353 908.683 353C918.416 353 926.816 355 933.883 359C941.083 363 946.683 369 950.683 377C954.683 384.867 956.683 394.733 956.683 406.6V414H872.083L872.283 397.2ZM1002.96 458H978.759V355H1002.96L1002.76 368C1005.83 363.067 1009.56 359.333 1013.96 356.8C1018.36 354.267 1023.96 353 1030.76 353C1042.23 353 1051.43 356.2 1058.36 362.6C1065.29 368.867 1068.76 379.467 1068.76 394.4V458H1044.56V394.6C1044.56 386.6 1042.89 380.933 1039.56 377.6C1036.36 374.133 1031.56 372.4 1025.16 372.4C1020.36 372.4 1016.29 373.267 1012.96 375C1009.63 376.733 1007.09 379.467 1005.36 383.2C1003.76 386.8 1002.96 391.533 1002.96 397.4V458Z" fill="#FDC005"/>
</svg>
