<svg width="560" height="560" viewBox="0 0 560 560" fill="none" xmlns="http://www.w3.org/2000/svg">
<path d="M325.312 431.502C311.697 452.832 295.434 469.511 289.005 475.184L282.765 487.097C286.736 487.475 300.805 487.778 325.312 485.962C355.946 483.693 384.878 469.511 409.839 457.03C434.8 444.55 457.492 417.319 475.646 385.551C490.169 360.136 495.69 337.898 496.636 329.956C490.206 328.821 467.023 329.956 425.724 343.571C374.1 360.59 342.331 404.839 325.312 431.502Z" fill="#105830"/>
<path d="M240.218 549.5H210.719C270.285 478.02 265.747 464.405 278.227 415.618C288.212 376.587 273.311 322.959 264.612 301.023H295.813C296.192 301.213 297.969 305.562 302.054 321.446C307.159 341.302 313.4 359.455 306.592 420.156C301.146 468.717 260.263 526.997 240.218 549.5Z" fill="#105830"/>
<path d="M231.146 410.178C241.584 426.516 249.488 457.831 252.136 471.446C250.434 470.879 244.194 469.29 232.848 467.475C218.665 465.206 180.089 456.129 146.051 436.274C112.013 416.418 90.456 385.784 81.3793 369.332C74.1179 356.171 67.0077 335.106 64.3604 326.218C79.1101 325.651 124.494 324.516 163.07 344.939C201.646 365.361 218.098 389.755 231.146 410.178Z" fill="#5F9A38"/>
<path d="M279.934 10.0225C258.474 13.4388 248.254 21.4049 223.914 48.0088C204.399 69.3392 194.604 106.063 192.146 121.758L279.934 225.404V225.573L280.006 225.488L280.076 225.573V225.404L367.865 121.758C365.407 106.063 355.612 69.3392 336.097 48.0088C311.757 21.4045 301.536 13.4388 280.076 10.0225V10C280.053 10.0037 280.029 10.007 280.006 10.0107C279.982 10.007 279.958 10.0038 279.934 10V10.0225Z" fill="#FDC005"/>
<path d="M434.804 240.323C387.718 290.245 314.348 302.347 279.932 302.726V225.573C281.255 220.467 286.853 206.285 300.922 185.862C318.508 160.334 356.517 121.758 396.228 107.575C435.938 93.3927 452.39 95.0946 469.409 97.3638C483.024 99.1791 484.915 117.786 484.159 126.863C483.024 142.18 481.89 190.401 434.804 240.323Z" fill="#FDC005"/>
<path d="M320.632 160.538C300.832 179.422 285.249 211.71 279.932 225.573V302.726C306.882 286.989 349.231 231.353 360.231 191.449C369.031 159.526 369.031 131.687 367.931 121.758C360.415 126.816 340.431 141.653 320.632 160.538Z" fill="#FEE298"/>
<path d="M125.203 240.323C172.289 290.245 245.659 302.347 280.075 302.726V225.573C278.752 220.467 273.154 206.285 259.085 185.862C241.499 160.334 203.49 121.758 163.779 107.575C124.068 93.3927 107.617 95.0946 90.5978 97.3638C76.9826 99.1791 75.0916 117.786 75.8481 126.863C76.9826 142.18 78.1172 190.401 125.203 240.323Z" fill="#FDC005"/>
<path d="M239.375 160.538C259.175 179.422 274.758 211.71 280.075 225.573V302.726C253.125 286.989 210.776 231.353 199.776 191.449C190.976 159.526 190.976 131.687 192.076 121.758C199.592 126.816 219.575 141.653 239.375 160.538Z" fill="#FEE298"/>
</svg>
